<svg id="Layer_1" data-name="Layer 1" xmlns="http://www.w3.org/2000/svg" viewBox="0 0 1917.93 547.53"><defs><style>.cls-1{fill:none;}.cls-2{fill:#d3d3d3;}.cls-3{fill:#fff;}.cls-4{fill:#009348;}</style></defs><title>full 30 logo</title><g id="New_Symbol" data-name="New Symbol"><circle class="cls-1" cx="2291.97" cy="137.71" r="466.31"/><path class="cls-2" d="M229,373.35a13.59,13.59,0,0,1-13.57-13.58V188.15a13.54,13.54,0,0,1,20.34-11.75L384.4,262.21a13.55,13.55,0,0,1,0,23.49L235.77,371.52a13.62,13.62,0,0,1-6.77,1.83Z"/><path class="cls-3" d="M252.75,160.45q2.37,1.44,4.71,2.92l140.51,81a34.11,34.11,0,0,1,14.74,42.4c44.92-43.19,68.64-101.6,69-162.26A249.83,249.83,0,0,0,299.33,24.59a237.61,237.61,0,0,1,65.72,168.47c-.1,5.61-.41,11.16-.88,16.66C360,130,316.57,63.46,252.54,25.58A250,250,0,0,0,74.7,133,237.61,237.61,0,0,1,252.75,160.45Z"/><path class="cls-3" d="M194.52,187c0-17.36,13.73-31.74,30.62-33.93-59.16-17-120.82-8.56-173.1,20.7A250.63,250.63,0,0,0,55.51,381.9,237.57,237.57,0,0,1,168.36,241.4q7.35-4.07,14.86-7.56C116.38,277.18,80.53,347.82,79.57,422A249.8,249.8,0,0,0,260.71,523.32a237.51,237.51,0,0,1-65.5-155.73C194.76,365.42,194.52,187,194.52,187Z"/><path class="cls-3" d="M510.87,373.3a250.64,250.64,0,0,0-4.64-208.6A237.56,237.56,0,0,1,396.66,304.5L247.52,391.78c-5.2,3-11.09,5.76-17.06,5.76h0c-10.78,0-21-5.77-27.72-14.23,15.14,59.77,53.55,108.94,105.35,139.42a250,250,0,0,0,180-108,237.55,237.55,0,0,1-179.49-27.15c-4.81-2.89-9.46-5.92-14-9.09C366.09,415,445.87,410.34,510.87,373.3Z"/></g><path class="cls-3" d="M799.86,296.1H690V405H637.46V142.88H818.23v40.51H690v72.2H799.86Z"/><path class="cls-3" d="M1057.7,142.88V316.81q0,44.12-29.17,68.06t-76.34,23.95q-47,0-75.89-23.95t-28.9-68.06V142.88h52.75V316.67q0,25.9,13.87,38.77t38.17,12.86q24.66,0,38.71-12.77T1005,316.67V142.88Z"/><path class="cls-3" d="M1156.19,364.52h116.67V405H1103.62V142.88h52.57Z"/><path class="cls-3" d="M1355.69,364.52h116.67V405H1303.11V142.88h52.58Z"/><path class="cls-4" d="M1549.07,251.63h29.53q18.72,0,27.72-9.81t9-27.28q0-15.84-9-25.39t-26.1-9.54q-14.78,0-24.85,8.64t-10.08,22.69h-51l-.36-1.08q-1.08-30.8,23.59-50.78t61.22-20q40.68,0,64.9,19.44T1667.9,214q0,17.1-10.8,32.5t-29.71,24q21.78,7.74,33.22,23.76T1672,331.57q0,36-26.19,56.63t-67.07,20.62q-36.55,0-62.75-19.36t-25.3-54.65l.36-1.08h51q0,15.06,10.81,24.81t27.37,9.76q18.18,0,28.71-10.05t10.54-27.31q0-20.65-10.36-30.27t-30.51-9.61h-29.53Z"/><path class="cls-4" d="M1884.15,303q0,52-23.86,78.95t-64.55,26.92q-41.06,0-65-26.92t-24-78.95v-57.8q0-51.85,23.86-79t64.73-27.09q40.69,0,64.73,27.09t24,79Zm-52.4-63.26q0-31.11-9.36-45.6t-27-14.48q-17.82,0-27,14.39t-9.18,45.69v68.17q0,31.67,9.27,46.05t27.28,14.39q17.64,0,26.83-14.39t9.18-46.05Z"/></svg>